<svg width="18" height="20" viewBox="0 0 18 20" fill="none" xmlns="http://www.w3.org/2000/svg">
<path fill-rule="evenodd" clip-rule="evenodd" d="M11.2499 13.4999C14.9778 13.4999 17.9999 10.4778 17.9999 6.74994C17.9999 3.02205 14.9778 0 11.2499 0C7.52205 0 4.5 3.02205 4.5 6.74994C4.5 10.4778 7.52205 13.4999 11.2499 13.4999ZM11.25 11.9999C14.1494 11.9999 16.4999 9.64943 16.4999 6.74996C16.4999 3.85049 14.1494 1.5 11.25 1.5C8.35049 1.5 6 3.85049 6 6.74996C6 9.64943 8.35049 11.9999 11.25 11.9999Z" fill="white"/>
<rect x="5.43457" y="12" width="2.65588" height="7.96447" rx="1.32794" transform="rotate(43.0287 5.43457 12)" fill="white"/>
</svg>
