<svg width="718" height="140" viewBox="0 0 718 140" fill="none" xmlns="http://www.w3.org/2000/svg">
<path d="M654.413 133.516L657.767 134.1L657.621 136.724L658.058 138.619L660.683 136.724L663.162 135.266L668.704 135.703L669.579 137.453L670.745 139.057L671.766 137.307L672.204 135.491L675.12 134.245L676.134 131.599L675.995 127.684L676.134 124.185C678.328 123.456 683.141 123.495 685.62 123.019C687.644 122.63 695.478 121.118 697.869 119.957L709.535 111.064L713.181 105.378L715.076 99.8373L717.264 88.3194L715.076 77.3847L713.181 78.2594L712.452 85.6951L710.148 91.3811L703.796 98.4117L696.557 103.336L686.932 104.503L680.078 103.738L677.745 96.0466C677.062 93.8614 674.537 90.2871 674.537 89.6316C674.537 88.976 674.112 84.6044 673.224 82.4875L668.85 69.5116L662.725 54.7862L665.069 53.1823L672.641 51.1413L679.641 51.7245L682.12 49.8291L685.62 51.1413L687.224 50.4123L691.015 43.7056C691.015 43.7056 690.424 38.3623 688.974 35.6868C687.736 33.404 684.89 30.4381 684.89 30.4381L684.161 27.2305L681.391 19.9407C681.391 19.9407 680.083 17.5753 677.453 15.7126C673.22 12.7141 668.14 9.6843 663.017 10.0265C659.037 10.2923 656.593 10.1428 652.955 11.7761C649.546 13.306 645.372 17.6079 645.372 17.6079C643.391 20.7491 640.996 26.4111 639.684 27.2305C638.373 28.0499 637.168 34.0367 636.622 38.7484L630.352 53.1823L630.206 54.3488L620.435 60.7638C618.181 63.0856 615.13 66.633 614.311 67.6163C613.491 68.5996 608.413 71.2981 607.457 71.8444L607.311 73.4481L611.686 74.9061L609.936 78.2594C610.519 79.4258 612.491 78.6777 615.769 77.5304C617.08 77.5304 617.013 79.1098 617.373 79.5716L619.123 78.6968L621.019 75.3435L624.664 75.1977L622.769 81.3212L623.206 94.7345C623.206 98.0122 624.373 99.4553 624.373 100.275C624.373 101.094 623.88 107.092 623.06 108.731V113.396L623.644 117.479L625.831 120.832L632.101 124.477L636.914 127.101C635.821 127.306 631.881 129.599 629.914 130.746C627.947 131.893 633.178 131.881 633.997 132.496H638.08C640.546 132.496 639.603 133.066 640.559 133.954L642.747 132.642L645.08 132.35L648.288 132.496V134.245L651.642 133.225H653.246L654.413 133.516Z" fill="#525252" stroke="white"/>
<path opacity="0.108" d="M654.858 72.1588C654.858 74.4767 654.179 76.3642 652.821 77.8212C651.464 79.245 649.626 80.4537 647.308 81.4471C646.878 81.6458 646.662 81.9934 646.662 82.4901V88.4008H641.348V78.2185C643.103 78.0861 644.725 77.5232 646.215 76.5298C647.705 75.5033 648.451 74.1622 648.451 72.5065C648.451 71.1489 647.937 70.0892 646.911 69.3276C645.884 68.5329 644.676 68.1356 643.285 68.1356C641.563 68.1356 639.841 68.715 638.119 69.874L635.834 65.5031C638.086 64.0461 640.785 63.3176 643.931 63.3176C646.845 63.3176 649.394 64.0958 651.58 65.6521C653.765 67.1753 654.858 69.3442 654.858 72.1588ZM646.662 93.2188C647.424 93.9804 647.805 94.891 647.805 95.9507C647.805 97.0103 647.424 97.9209 646.662 98.6825C645.934 99.411 645.04 99.7752 643.98 99.7752C642.921 99.7752 642.01 99.411 641.248 98.6825C640.52 97.9209 640.156 97.0103 640.156 95.9507C640.156 94.891 640.52 93.9804 641.248 93.2188C642.01 92.4572 642.921 92.0764 643.98 92.0764C645.04 92.0764 645.934 92.4572 646.662 93.2188Z" fill="white"/>
<path d="M4.65301 86.6118V74.957L4.4869 74.1246C4.15482 73.4586 3.45744 72.0933 3.3246 71.9601L1.99626 70.6281C1.86342 70.4949 1.27674 69.5737 1 69.1297L1.66417 66.7987L2.99252 63.3023L6.31337 59.9724L8.47193 59.3064L12.623 58.9734C12.9551 58.8624 13.6857 58.6404 13.9514 58.6404C14.2834 58.6404 14.4495 58.1409 14.6155 57.9744C14.7816 57.8079 14.6155 56.476 14.6155 56.143C14.6155 55.8766 15.7225 54.811 16.276 54.3115L18.9326 52.3136L21.5893 49.4831L24.08 46.4862L26.7367 44.4882L27.4008 40.4923L28.8952 38.1614C30.3896 37.7174 33.478 36.7961 33.8765 36.6629C34.3746 36.4964 36.3672 36.6629 36.6992 36.6629C37.0313 36.6629 39.0237 37.6618 39.3559 37.8284L39.3559 37.8284C39.6216 37.9616 40.5736 38.3279 41.0164 38.4944C41.4038 38.3834 42.2783 38.0948 42.6768 37.8284C43.1749 37.4954 43.8391 37.8284 44.1712 37.8284H47.9902H50.9789L53.3035 36.6629C54.4658 36.5519 56.9233 36.3299 57.4546 36.3299H60.7755C61.1076 36.3299 65.0926 37.1624 65.2586 37.3289C65.3915 37.4621 68.7455 37.4954 70.406 37.4954C70.7934 37.3844 71.6015 37.1291 71.7343 36.9959C71.9003 36.8294 73.8929 34.665 74.0589 34.332C74.225 33.999 75.8854 33.666 76.3835 33.4995C76.782 33.3663 79.0955 33.111 80.2025 33L83.6894 33.666L85.848 34.332C86.18 34.887 86.8442 36.0302 86.8442 36.1634C86.8442 36.2966 87.3977 37.7729 87.6744 38.4944C87.7851 39.6598 88.0065 42.0241 88.0065 42.1573C88.0065 42.3238 88.5046 43.8223 88.6707 44.1552C88.8367 44.4882 89.833 45.6537 90.1651 45.9867C90.4972 46.3197 91.8255 47.4852 92.1576 47.6517C92.4233 47.7849 94.0394 49.0391 94.8143 49.6496L97.1389 51.6476L98.7993 53.812C99.2421 54.3115 100.161 55.3771 100.294 55.6435C100.46 55.9765 101.456 56.3095 101.954 56.476C102.452 56.6425 103.116 56.809 103.449 56.9755C103.714 57.1086 104.777 57.2529 105.275 57.3084C106.216 58.1409 108.098 59.8392 108.098 59.9724C108.098 60.1389 109.426 61.8038 109.592 61.9703C109.758 62.1368 109.758 63.6353 109.758 63.9683C109.758 64.2347 109.537 66.0772 109.426 66.9652V68.2972L110.588 70.6281L112.249 75.4565C112.526 76.511 113.079 78.6533 113.079 78.7865C113.079 78.9529 113.743 82.1164 113.577 82.2829C113.444 82.4161 113.854 85.5573 114.075 87.1113L114.739 89.4422C115.459 90.3302 116.931 92.1394 117.064 92.2726C117.197 92.4058 118.891 94.2151 119.721 95.1031L120.717 96.1021L120.385 100.098L119.721 101.097L119.389 102.262C119.223 102.817 118.857 103.994 118.724 104.26C118.558 104.593 118.392 106.092 118.392 106.258C118.392 106.392 117.839 107.757 117.562 108.423L115.072 112.252L113.577 112.419H110.256C109.924 112.419 108.098 112.918 107.932 112.918C107.799 112.918 106.991 113.806 106.603 114.25L105.275 116.415C104.832 117.358 103.88 119.312 103.615 119.578C103.282 119.911 101.622 121.909 101.29 122.075C100.958 122.242 99.7956 123.74 99.7956 123.907C99.7956 124.04 97.9137 125.849 96.9728 126.737C96.8068 127.403 96.4747 128.802 96.4747 129.068C96.4747 129.401 96.3087 130.4 96.3087 130.567C96.3087 130.733 96.1426 131.399 95.8105 131.732C95.4784 132.065 94.9803 132.398 94.1501 132.731C93.3199 133.064 92.8218 133.397 92.4897 133.564C92.224 133.697 90.3865 134.84 89.5009 135.395C89.1688 135.284 88.3718 134.996 87.8405 134.729C87.1763 134.396 86.18 134.063 85.5159 133.73C84.8517 133.397 84.0215 133.231 83.6894 133.231C83.3573 133.231 82.8592 133.564 82.5271 133.564C82.195 133.564 80.8667 134.063 79.8704 134.396C78.8742 134.729 78.7081 134.563 78.21 134.563C77.7119 134.563 76.5496 135.062 75.2212 135.062H72.8966C72.3985 135.062 71.2362 135.395 70.738 135.395C70.2399 135.395 70.572 135.728 70.0739 135.895C69.5757 136.061 69.0776 137.06 68.9116 137.227C68.7455 137.393 67.9153 138.559 67.5832 138.725C67.2511 138.892 66.9191 138.892 66.0888 139.058C65.2586 139.225 64.7605 139.058 63.5982 139.058C62.4359 139.058 62.1038 139.058 61.6057 138.892C61.1076 138.725 60.7755 138.392 60.4434 138.059C60.1113 137.726 58.6169 137.06 58.4509 136.894C58.2848 136.727 57.7867 136.727 57.1225 136.561C56.4584 136.394 55.4621 136.561 53.8017 136.561C52.1412 136.561 52.1412 135.895 50.8129 135.895H47.6581C47.492 135.895 41.8466 134.896 41.5145 134.896C41.1824 134.896 39.8541 136.061 39.3559 136.394C38.8578 136.727 37.8615 137.227 37.3634 137.393C36.8653 137.56 36.0351 137.393 35.3709 137.393C34.7067 137.393 33.3784 136.894 32.3821 136.561C31.3859 136.228 30.5556 135.562 29.7254 135.229C28.8952 134.896 28.065 133.73 27.7329 132.898C27.4008 132.065 27.7329 132.065 27.899 131.066C28.065 130.067 27.7329 129.901 27.7329 129.568C27.7329 129.301 27.0687 128.125 26.7367 127.57L25.4083 126.238C24.7441 125.627 23.1169 124.24 21.9214 123.574C20.7259 122.908 19.2094 121.409 18.6006 120.743C17.2169 118.801 14.1174 114.616 12.7891 113.418C11.1286 111.919 10.6305 109.755 8.47193 109.755C7.64172 109.755 4.65301 106.425 3.15862 104.427C1.66424 102.429 3.15862 99.2655 4.65301 98.5995C5.84852 98.0667 5.15114 96.6015 4.65301 95.9356V92.4391V86.6118Z" fill="#525252" stroke="white"/>
<path opacity="0.108" d="M68.0757 76.4796C68.0757 78.7975 67.3969 80.685 66.0393 82.142C64.6816 83.5658 62.8438 84.7745 60.5259 85.7679C60.0954 85.9666 59.8802 86.3142 59.8802 86.8109V92.7217H54.5655V82.5393C56.3205 82.4069 57.9431 81.844 59.4332 80.8506C60.9233 79.8241 61.6683 78.483 61.6683 76.8273C61.6683 75.4697 61.1551 74.41 60.1285 73.6484C59.102 72.8537 57.8934 72.4564 56.5027 72.4564C54.7808 72.4564 53.0589 73.0358 51.337 74.1948L49.0522 69.8239C51.3039 68.3669 54.0026 67.6384 57.1484 67.6384C60.0623 67.6384 62.612 68.4166 64.7975 69.9729C66.983 71.4961 68.0757 73.665 68.0757 76.4796ZM59.8802 97.5396C60.6418 98.3012 61.0226 99.2118 61.0226 100.271C61.0226 101.331 60.6418 102.242 59.8802 103.003C59.1517 103.732 58.2577 104.096 57.198 104.096C56.1384 104.096 55.2278 103.732 54.4662 103.003C53.7377 102.242 53.3735 101.331 53.3735 100.271C53.3735 99.2118 53.7377 98.3012 54.4662 97.5396C55.2278 96.778 56.1384 96.3972 57.198 96.3972C58.2577 96.3972 59.1517 96.778 59.8802 97.5396Z" fill="white"/>
<path d="M290.061 8.85377C289.552 9.53302 288.009 12.25 287.302 13.5236L287.089 13.9481C287.514 14.4434 288.405 15.4764 288.575 15.6462C288.788 15.8585 292.396 19.467 292.396 19.6792C292.396 19.8491 295.226 23.0047 296.641 24.5613C297.844 26.2594 300.292 29.7406 300.462 30.0802C300.674 30.5047 302.372 32.8396 302.372 33.2641C302.372 33.6887 308.953 43.4528 309.165 43.8774C309.335 44.217 311.075 47.5566 311.924 49.184L315.321 61.9198C315.674 63.6887 316.382 67.3113 316.382 67.6509C316.382 67.9906 316.523 69.7736 316.594 70.6226V78.2641V80.5991L316.382 83.5707L315.533 88.4528V91.2123C315.533 91.6368 315.957 93.9717 315.957 94.184V97.3679C315.957 97.5377 316.099 100.41 316.17 101.825L315.745 105.858C315.462 106.566 314.896 108.024 314.896 108.193C314.896 108.363 312.773 112.934 311.712 115.198L310.651 117.321V119.231C310.722 119.514 310.905 120.123 311.075 120.292C311.288 120.505 311.924 121.778 312.137 122.203L313.41 124.75V127.297L312.349 128.783C311.571 129.208 309.972 130.099 309.802 130.269C309.632 130.439 308.033 130.764 307.255 130.906L305.556 131.33L304.495 131.118C304.283 131.33 303.816 131.755 303.646 131.755C303.434 131.755 301.948 132.179 301.523 132.179C301.184 132.179 299.684 132.604 298.976 132.816C297.561 132.958 294.688 133.241 294.519 133.241C294.306 133.241 292.821 133.453 292.396 133.665C291.972 133.877 291.122 133.665 290.698 133.665C290.273 133.665 289.637 133.028 289.424 132.816C289.255 132.646 288.788 132.604 288.575 132.604C286.806 132.179 283.226 131.33 283.056 131.33C282.887 131.33 282.278 130.906 281.995 130.693L281.571 130.269L280.722 129.844C280.382 129.675 280.297 128.783 280.297 128.358L280.934 126.448C281.783 125.458 283.523 123.476 283.693 123.476C283.863 123.476 284.33 122.431 284.542 121.909V120.505C283.835 120.009 282.377 118.976 282.207 118.807C281.995 118.594 280.722 118.382 280.509 118.382H278.599C277.962 118.382 276.476 118.17 275.839 118.17C275.33 118.17 272.938 118.311 271.806 118.382C269.825 118.099 265.736 117.533 265.226 117.533C264.589 117.533 262.467 117.321 262.042 117.321C261.703 117.321 259.071 116.472 257.797 116.047L257.16 116.896C257.019 117.321 256.736 118.255 256.736 118.594C256.736 119.019 256.311 119.868 256.099 120.08C255.887 120.292 255.25 121.354 255.038 121.566C254.825 121.778 253.339 122.203 252.703 122.415C252.066 122.627 250.58 122.84 250.368 122.84C250.198 122.84 247.042 123.123 245.486 123.264C244.707 123.547 243.108 124.113 242.938 124.113C242.769 124.113 240.745 123.972 239.755 123.901H238.481C238.269 124.042 237.802 124.325 237.632 124.325C237.42 124.325 236.146 124.538 235.509 124.538H232.75C231.264 124.608 228.207 124.75 227.868 124.75C227.528 124.75 226.028 124.892 225.321 124.962L224.259 124.538C223.976 124.608 223.325 124.75 222.986 124.75C222.561 124.75 221.075 124.113 220.863 123.901C220.651 123.689 220.226 123.264 220.014 122.84C219.802 122.415 220.651 121.566 220.863 121.354C221.075 121.142 221.712 120.292 222.137 120.08C222.476 119.91 224.967 118.17 226.17 117.321C226.806 117.038 228.08 116.429 228.08 116.259C228.08 116.047 228.717 114.986 228.717 114.774C228.717 114.561 228.08 114.137 227.655 114.137C227.316 114.137 226.099 113.146 225.533 112.651L220.651 108.193C220.014 107.132 218.655 104.967 218.316 104.797C217.891 104.585 217.255 101.189 217.255 100.764C217.255 100.425 216.972 96.6604 216.83 94.8207L217.255 92.2736C218.033 91.2123 219.632 89.0472 219.802 88.8773L225.957 82.7217C226.127 82.5519 226.594 81.9434 226.806 81.6604C226.806 80.8821 226.891 79.1981 227.231 78.6887C227.571 78.1792 227.938 77.0613 228.08 76.566L230.839 67.8632C230.981 67.0849 231.264 65.4434 231.264 65.1038C231.264 64.6792 230.627 62.3443 230.627 62.1321C230.627 61.9198 226.594 58.5236 225.957 58.3113C225.321 58.0991 221.924 56.6132 220.438 56.1887C218.953 55.7641 216.405 54.7028 215.132 54.4906C214.113 54.3208 212.019 53.8538 211.099 53.6415C208.481 52.2972 203.16 49.566 202.821 49.3962C202.481 49.2264 201.972 48.9009 201.759 48.7594L200.91 48.9717C200.627 49.3962 200.019 50.2453 199.849 50.2453C199.679 50.2453 198.646 51.0943 198.151 51.5189C197.938 51.5189 197.472 51.4764 197.302 51.3066C197.089 51.0943 196.24 49.6085 196.028 49.3962C195.858 49.2264 195.391 47.9104 195.179 47.2736C194.967 47.4151 194.5 47.6981 194.33 47.6981C194.118 47.6981 193.905 48.5472 193.905 48.7594C193.905 48.9717 193.481 50.6698 193.481 51.0943C193.481 51.434 193.198 52.3679 193.056 52.7924C192.703 52.8632 191.91 52.9623 191.571 52.7924C191.146 52.5802 190.085 52.5802 189.66 52.5802C189.321 52.5802 188.811 51.5896 188.599 51.0943C188.174 50.9528 187.24 50.6698 186.901 50.6698C186.476 50.6698 185.839 50.033 185.415 50.033C184.99 50.033 184.566 48.9717 184.354 48.7594C184.184 48.5896 183.858 46.9906 183.717 46.2123L184.566 44.9387C185.769 43.9481 188.344 41.9245 189.023 41.7547C189.703 41.5849 190.58 39.9858 190.934 39.2075L194.755 36.0236H199.424C201.052 35.7406 204.476 35.1745 205.155 35.1745C206.005 35.1745 213.858 34.3255 214.707 34.3255C215.556 34.3255 218.528 35.1745 219.165 35.1745C219.802 35.1745 220.014 34.9623 220.438 34.3255C220.778 33.816 221.146 32.6981 221.288 32.2028L222.561 28.8066L225.321 24.5613L231.052 17.3443C232.113 16.4953 234.236 14.6698 234.236 14.1604C234.236 13.6509 235.226 11.684 235.722 10.7642L237.207 6.3066C238.127 5.10377 240.009 2.61321 240.179 2.27358C240.391 1.84906 243.575 2.27358 244.212 2.69811C244.849 3.12264 250.368 5.66981 250.792 5.88208C251.217 6.09434 253.127 5.24528 253.339 5.03302C253.552 4.82075 258.646 3.54717 260.344 3.54717C262.042 3.54717 265.651 3.9717 267.137 4.60849C268.622 5.24528 270.321 4.60849 270.745 4.60849C271.17 4.60849 276.264 2.27358 277.538 1.84906C278.811 1.42453 284.542 1 286.665 1C288.788 1 291.972 1.63679 293.033 2.27358C294.094 2.91038 292.608 4.39623 292.396 4.60849C292.184 4.82075 290.698 8.00472 290.061 8.85377Z" fill="#525252" stroke="white"/>
<path opacity="0.108" d="M277.113 59.7623C277.113 62.0803 276.434 63.9677 275.076 65.4247C273.719 66.8486 271.881 68.0572 269.563 69.0506C269.133 69.2493 268.917 69.597 268.917 70.0937V76.0044H263.603V65.8221C265.358 65.6896 266.98 65.1267 268.47 64.1333C269.96 63.1068 270.705 61.7657 270.705 60.11C270.705 58.7524 270.192 57.6928 269.166 56.9312C268.139 56.1364 266.931 55.7391 265.54 55.7391C263.818 55.7391 262.096 56.3186 260.374 57.4775L258.089 53.1066C260.341 51.6496 263.04 50.9211 266.185 50.9211C269.099 50.9211 271.649 51.6993 273.835 53.2556C276.02 54.7788 277.113 56.9477 277.113 59.7623ZM268.917 80.8223C269.679 81.5839 270.06 82.4946 270.06 83.5542C270.06 84.6138 269.679 85.5244 268.917 86.286C268.189 87.0145 267.295 87.3788 266.235 87.3788C265.176 87.3788 264.265 87.0145 263.503 86.286C262.775 85.5244 262.411 84.6138 262.411 83.5542C262.411 82.4946 262.775 81.5839 263.503 80.8223C264.265 80.0607 265.176 79.6799 266.235 79.6799C267.295 79.6799 268.189 80.0607 268.917 80.8223Z" fill="white"/>
<path d="M429.052 133.599C429.264 133.811 432.448 135.085 432.448 135.297V133.811L431.387 128.505L430.962 124.047C430.891 121.146 430.75 115.259 430.75 114.92V112.16C432.165 112.514 435.038 113.222 435.207 113.222C435.377 113.222 437.825 113.929 439.028 114.283H442.212V114.92L439.877 117.467L435.632 123.198L434.146 124.896V127.019V128.505L433.934 130.203C434.217 130.84 434.783 132.156 434.783 132.325C434.783 132.495 435.773 132.962 436.269 133.175C436.623 133.599 437.373 134.491 437.542 134.66C437.712 134.83 439.311 135.156 440.09 135.297L442.212 132.75L445.821 129.354L449.429 123.835L452.613 118.104L454.736 118.741L458.981 120.226L464.5 121.075L469.594 121.712L478.509 122.561H484.453C484.792 122.561 489.406 122.278 491.67 122.137L491.245 123.41L490.821 126.382V134.236L491.67 136.571L492.943 137.844C493.651 138.198 495.151 138.906 495.49 138.906H498.462C498.632 138.906 500.231 138.198 501.009 137.844L503.344 135.934L504.406 133.811V126.807L503.769 120.014L504.83 119.59C506.811 118.953 510.858 117.679 511.198 117.679C511.538 117.679 515.443 115.557 517.354 114.495L522.236 112.16C525.915 109.33 533.316 103.627 533.486 103.458C533.656 103.288 535.962 100.84 537.094 99.6368L542.401 91.5707L544.311 82.0189L543.674 78.6226L540.066 72.2547L533.91 66.5236L528.179 64.6132L523.297 64.1887C521.457 64.5424 517.736 65.25 517.566 65.25C517.396 65.25 514.807 66.5236 513.533 67.1604L507.59 70.3443L504.618 72.2547C502.92 73.6698 499.481 76.5424 499.311 76.7123C499.141 76.8821 497.542 77.9151 496.764 78.4104L496.34 78.1981L495.703 77.1368L493.368 71.8302L491.67 68.434L490.821 66.9481L491.245 65.8868L492.943 64.1887L496.764 59.5189L498.674 55.9104L498.887 51.2406C498.179 50.3208 496.722 48.4811 496.552 48.4811C496.382 48.4811 495.066 48.3396 494.429 48.2689C493.226 48.9057 490.778 50.2217 490.608 50.3915C490.396 50.6038 488.061 52.3019 487.849 52.3019C487.679 52.3019 487.354 52.1604 487.212 52.0896L486.151 48.9057C485.726 47.7736 484.877 45.467 484.877 45.2972C484.877 45.1274 483.887 43.8113 483.391 43.1745L485.09 42.9623C486.505 43.033 489.42 43.1321 489.759 42.9623C490.184 42.75 495.278 42.5377 495.49 42.5377C495.66 42.5377 500.656 41.5472 503.132 41.0519C505.325 41.1934 509.755 41.4764 509.924 41.4764C510.137 41.4764 513.108 43.8113 513.108 44.0236C513.108 44.2358 513.533 46.3585 513.533 46.5708C513.533 46.783 511.41 49.1179 511.623 49.1179C511.792 49.1179 513.108 48.6934 513.745 48.4811L515.231 46.783V43.3868L512.684 39.566L510.773 38.0802L508.439 37.2311L506.953 35.7453L506.74 34.0472L507.377 32.3491L508.863 30.2264L513.321 25.5566L516.292 23.2217C518.061 22.4434 521.684 20.8868 522.023 20.8868C522.363 20.8868 522.873 20.4623 523.085 20.25L520.962 20.0377L517.141 20.4623C514.807 20.816 510.052 21.5236 509.712 21.5236C509.288 21.5236 504.406 22.5849 504.193 22.5849C504.023 22.5849 498.038 24.4245 495.066 25.3443C492.802 26.1226 488.231 27.7217 488.061 27.8915C487.891 28.0613 486.151 29.0943 485.302 29.5896C484.24 30.5802 482.075 32.5613 481.906 32.5613C481.736 32.5613 480.137 33.9764 479.358 34.684H479.146L477.66 34.0472L474.476 32.5613L466.835 30.0141C465.42 29.8019 462.505 29.3774 462.165 29.3774C461.74 29.3774 457.92 29.8019 457.495 29.8019C457.156 29.8019 455.656 30.2264 454.948 30.4387L455.16 27.8915L456.646 24.9198L460.679 19.4009C462.873 16.9953 467.302 12.1415 467.472 11.9717C467.641 11.8019 469.24 10.4858 470.019 9.84906V9L468.533 9.84906L464.288 12.6085L460.042 15.1557L455.797 17.9151C454.24 19.2594 451.085 21.9906 450.915 22.1604C450.703 22.3726 446.033 27.2547 445.821 27.2547C445.651 27.2547 444.052 29.8019 443.273 31.0755L443.061 34.684V37.4434L441.788 39.1415L440.939 40.6274L439.665 42.1132L439.028 44.2358L437.755 45.2972L435.207 48.2689L433.722 49.967H431.599C431.174 49.967 429.901 50.3915 429.689 50.3915C429.519 50.3915 428.627 51.2406 428.203 51.6651C428.061 52.6557 427.778 54.6792 427.778 54.8491C427.778 55.0613 428.627 56.9717 428.84 57.184C429.009 57.3538 431.174 61.0755 432.236 62.9151C433.014 64.1179 434.571 66.566 434.571 66.7358C434.571 66.9057 435.844 67.7972 436.481 68.2217L436.906 70.1321C436.835 71.3349 436.693 73.8255 436.693 74.1651C436.693 74.5896 436.481 77.5613 436.481 77.7736C436.481 77.9434 437.896 83.0802 438.604 85.6273L438.816 86.6887C438.533 87.1132 437.967 88.0047 437.967 88.1745V90.7217C437.967 90.934 438.604 93.0566 438.816 93.2689L440.939 95.3915C442.354 97.0896 445.226 100.528 445.396 100.698C445.566 100.868 447.448 101.618 448.368 101.972L449.217 103.882C448.934 104.59 448.283 106.047 447.943 106.217C447.604 106.387 447.377 106.146 447.307 106.005C444.901 103.953 440.047 99.8491 439.877 99.8491C439.707 99.8491 433.156 93.6226 429.901 90.5094L425.231 87.5377V88.8113C425.231 89.0236 425.656 91.1462 425.656 91.5707C425.656 91.9953 425.443 95.1792 425.443 95.3915C425.443 95.5613 424.877 99.9906 424.594 102.184L423.321 105.368C422.755 105.368 421.58 105.325 421.41 105.156C421.198 104.943 417.802 104.731 417.165 104.519C416.528 104.307 411.858 103.245 411.646 103.245C411.476 103.245 406.906 102.113 404.641 101.547C398.84 99.7783 387.193 96.1981 387.023 96.0283C386.811 95.816 381.717 93.9057 381.292 93.6934C380.953 93.5236 380.019 93.4811 379.594 93.4811L380.231 94.7547L381.717 96.2406C381.929 96.4528 385.113 99.6368 385.325 99.6368C385.495 99.6368 387.519 102.042 388.509 103.245C390.066 104.731 393.264 107.745 393.604 107.915C393.943 108.085 398.132 111.948 400.184 113.858C402.165 115.344 406.212 118.358 406.552 118.528C406.976 118.741 415.042 124.472 415.255 124.472C415.467 124.472 419.712 128.08 420.349 128.717C420.986 129.354 425.019 130.627 425.231 130.84C425.443 131.052 428.84 133.387 429.052 133.599Z" fill="#525252" stroke="white"/>
<path opacity="0.108" d="M477.236 68.1871C477.236 70.5051 476.557 72.3925 475.199 73.8495C473.842 75.2734 472.004 76.482 469.686 77.4754C469.256 77.6741 469.04 78.0218 469.04 78.5185V84.4292H463.726V74.2469C465.481 74.1144 467.103 73.5515 468.593 72.5581C470.083 71.5316 470.828 70.1905 470.828 68.5348C470.828 67.1772 470.315 66.1176 469.289 65.356C468.262 64.5612 467.054 64.1639 465.663 64.1639C463.941 64.1639 462.219 64.7434 460.497 65.9023L458.212 61.5314C460.464 60.0744 463.163 59.3459 466.309 59.3459C469.222 59.3459 471.772 60.1241 473.958 61.6804C476.143 63.2036 477.236 65.3725 477.236 68.1871ZM469.04 89.2471C469.802 90.0087 470.183 90.9194 470.183 91.979C470.183 93.0386 469.802 93.9492 469.04 94.7108C468.312 95.4393 467.418 95.8036 466.358 95.8036C465.299 95.8036 464.388 95.4393 463.626 94.7108C462.898 93.9492 462.534 93.0386 462.534 91.979C462.534 90.9194 462.898 90.0087 463.626 89.2471C464.388 88.4855 465.299 88.1047 466.358 88.1047C467.418 88.1047 468.312 88.4855 469.04 89.2471Z" fill="white"/>
</svg>
