<svg width="43" height="18" viewBox="0 0 43 18" fill="none" xmlns="http://www.w3.org/2000/svg">
<path d="M19.8833 9C19.8833 13.8743 15.6394 17.8441 10.3807 17.8441C5.122 17.8441 0.878091 13.8743 0.878091 9C0.878091 4.12574 5.122 0.155923 10.3807 0.155923C15.6394 0.155923 19.8833 4.12574 19.8833 9Z" fill="#313131" stroke="#525252" stroke-width="0.311847"/>
<path d="M18.1914 8.23159C18.1914 12.1121 14.9491 15.2734 10.9301 15.2734C6.91108 15.2734 3.66878 12.1121 3.66878 8.23159C3.66878 4.35109 6.91108 1.18978 10.9301 1.18978C14.9491 1.18978 18.1914 4.35109 18.1914 8.23159Z" fill="#6D6D6D" stroke="#6B6B6B" stroke-width="0.623693"/>
<circle cx="25.6072" cy="3.99097" r="2.7439" fill="#616161"/>
<circle cx="32.6316" cy="3.99097" r="2.7439" fill="#848484"/>
<path d="M42.4004 3.99097C42.4004 5.50639 41.1719 6.73488 39.6565 6.73488C38.1411 6.73488 36.9126 5.50639 36.9126 3.99097C36.9126 2.47556 38.1411 1.24707 39.6565 1.24707C41.1719 1.24707 42.4004 2.47556 42.4004 3.99097Z" fill="#BEBEBE"/>
</svg>
